<?xml version="1.0" encoding="UTF-8" standalone="no"?>
<!DOCTYPE svg PUBLIC "-//W3C//DTD SVG 1.1//EN"
 "http://www.w3.org/Graphics/SVG/1.1/DTD/svg11.dtd">
<!-- Generated by graphviz version 2.36.0 (20140111.2315)
 -->
<!-- Title: G Pages: 1 -->
<svg width="438pt" height="834pt"
 viewBox="0.00 0.00 438.00 834.00" xmlns="http://www.w3.org/2000/svg" xmlns:xlink="http://www.w3.org/1999/xlink">
<g id="graph0" class="graph" transform="scale(1 1) rotate(0) translate(4 830)">
<title>G</title>
<polygon fill="white" stroke="none" points="-4,4 -4,-830 434,-830 434,4 -4,4"/>
<g id="clust1" class="cluster"><title>cluster_Global</title>
<path fill="none" stroke="gray" d="M132,-8C132,-8 410,-8 410,-8 416,-8 422,-14 422,-20 422,-20 422,-806 422,-806 422,-812 416,-818 410,-818 410,-818 132,-818 132,-818 126,-818 120,-812 120,-806 120,-806 120,-20 120,-20 120,-14 126,-8 132,-8"/>
<text text-anchor="middle" x="271" y="-805.2" font-family="Times New Roman,serif" font-size="11.00" fill="gray">Global</text>
</g>
<g id="clust2" class="cluster"><title>cluster_\Tdd</title>
<path fill="none" stroke="gray" d="M140,-16C140,-16 402,-16 402,-16 408,-16 414,-22 414,-28 414,-28 414,-778 414,-778 414,-784 408,-790 402,-790 402,-790 140,-790 140,-790 134,-790 128,-784 128,-778 128,-778 128,-28 128,-28 128,-22 134,-16 140,-16"/>
<text text-anchor="middle" x="271" y="-777.2" font-family="Times New Roman,serif" font-size="11.00" fill="gray">Tdd</text>
</g>
<!-- \\Tdd\\RegistrationModule -->
<g id="node1" class="node"><title>\\Tdd\\RegistrationModule</title>
<polygon fill="none" stroke="black" points="405,-762 303,-762 303,-726 405,-726 405,-762"/>
<text text-anchor="middle" x="354" y="-741.2" font-family="Times New Roman,serif" font-size="11.00">RegistrationModule</text>
</g>
<!-- \\Tdd\\Configuration -->
<g id="node2" class="node"><title>\\Tdd\\Configuration</title>
<polygon fill="none" stroke="black" points="392,-708 316,-708 316,-672 392,-672 392,-708"/>
<text text-anchor="middle" x="354" y="-687.2" font-family="Times New Roman,serif" font-size="11.00">Configuration</text>
</g>
<!-- \\Tdd\\SqliteStorage -->
<g id="node3" class="node"><title>\\Tdd\\SqliteStorage</title>
<polygon fill="none" stroke="black" points="391,-654 317,-654 317,-618 391,-618 391,-654"/>
<text text-anchor="middle" x="354" y="-633.2" font-family="Times New Roman,serif" font-size="11.00">SqliteStorage</text>
</g>
<!-- \\Tdd\\PersistentStorage -->
<g id="node5" class="node"><title>\\Tdd\\PersistentStorage</title>
<polygon fill="none" stroke="black" points="230,-654 136,-654 136,-618 230,-618 230,-654"/>
<text text-anchor="start" x="160" y="-639.2" font-family="Times New Roman,serif" font-size="11.00">«abstract»</text>
<text text-anchor="start" x="144" y="-627.2" font-family="Times New Roman,serif" font-size="11.00">PersistentStorage</text>
</g>
<!-- \\Tdd\\SqliteStorage&#45;&gt;\\Tdd\\PersistentStorage -->
<g id="edge1" class="edge"><title>\\Tdd\\SqliteStorage&#45;&gt;\\Tdd\\PersistentStorage</title>
<path fill="none" stroke="black" d="M316.745,-636C294.497,-636 265.538,-636 240.347,-636"/>
<polygon fill="none" stroke="black" points="240.177,-632.5 230.177,-636 240.177,-639.5 240.177,-632.5"/>
</g>
<!-- \\Tdd\\User -->
<g id="node4" class="node"><title>\\Tdd\\User</title>
<polygon fill="none" stroke="black" points="381,-600 327,-600 327,-564 381,-564 381,-600"/>
<text text-anchor="middle" x="354" y="-579.2" font-family="Times New Roman,serif" font-size="11.00">User</text>
</g>
<!-- \\PDO -->
<g id="node17" class="node"><title>\\PDO</title>
<ellipse fill="none" stroke="black" cx="32" cy="-636" rx="31.6951" ry="18"/>
<text text-anchor="middle" x="32" y="-632.3" font-family="Times New Roman,serif" font-size="14.00" fill="gray">\PDO</text>
</g>
<!-- \\Tdd\\PersistentStorage&#45;&gt;\\PDO -->
<g id="edge2" class="edge"><title>\\Tdd\\PersistentStorage&#45;&gt;\\PDO</title>
<path fill="none" stroke="black" d="M135.672,-636C116.066,-636 93.4079,-636 74.3726,-636"/>
<polygon fill="none" stroke="black" points="74.2126,-632.5 64.2126,-636 74.2126,-639.5 74.2126,-632.5"/>
</g>
<!-- \\Tdd\\Application -->
<g id="node6" class="node"><title>\\Tdd\\Application</title>
<polygon fill="none" stroke="black" points="387,-546 321,-546 321,-510 387,-510 387,-546"/>
<text text-anchor="middle" x="354" y="-525.2" font-family="Times New Roman,serif" font-size="11.00">Application</text>
</g>
<!-- \\Tdd\\UserTypeValidator -->
<g id="node7" class="node"><title>\\Tdd\\UserTypeValidator</title>
<polygon fill="none" stroke="black" points="404.5,-492 303.5,-492 303.5,-456 404.5,-456 404.5,-492"/>
<text text-anchor="middle" x="354" y="-471.2" font-family="Times New Roman,serif" font-size="11.00">UserTypeValidator</text>
</g>
<!-- \\Tdd\\IValidator -->
<g id="node16" class="node"><title>\\Tdd\\IValidator</title>
<polygon fill="none" stroke="black" points="213.5,-411 152.5,-411 152.5,-375 213.5,-375 213.5,-411"/>
<text text-anchor="middle" x="183" y="-390.2" font-family="Times New Roman,serif" font-size="11.00">IValidator</text>
</g>
<!-- \\Tdd\\UserTypeValidator&#45;&gt;\\Tdd\\IValidator -->
<g id="edge3" class="edge"><title>\\Tdd\\UserTypeValidator&#45;&gt;\\Tdd\\IValidator</title>
<path fill="none" stroke="black" stroke-dasharray="1,5" d="M315.073,-455.822C287.651,-442.679 250.713,-424.975 223.038,-411.711"/>
<polygon fill="none" stroke="black" points="224.197,-408.385 213.666,-407.219 221.171,-414.697 224.197,-408.385"/>
</g>
<!-- \\Tdd\\EmailValidator -->
<g id="node8" class="node"><title>\\Tdd\\EmailValidator</title>
<polygon fill="none" stroke="black" points="395,-438 313,-438 313,-402 395,-402 395,-438"/>
<text text-anchor="middle" x="354" y="-417.2" font-family="Times New Roman,serif" font-size="11.00">EmailValidator</text>
</g>
<!-- \\Tdd\\EmailValidator&#45;&gt;\\Tdd\\IValidator -->
<g id="edge4" class="edge"><title>\\Tdd\\EmailValidator&#45;&gt;\\Tdd\\IValidator</title>
<path fill="none" stroke="black" stroke-dasharray="1,5" d="M312.949,-413.601C286.064,-409.306 250.787,-403.67 223.928,-399.379"/>
<polygon fill="none" stroke="black" points="224.143,-395.869 213.716,-397.747 223.038,-402.781 224.143,-395.869"/>
</g>
<!-- \\Tdd\\UserValidator -->
<g id="node9" class="node"><title>\\Tdd\\UserValidator</title>
<polygon fill="none" stroke="black" points="393.5,-384 314.5,-384 314.5,-348 393.5,-348 393.5,-384"/>
<text text-anchor="middle" x="354" y="-363.2" font-family="Times New Roman,serif" font-size="11.00">UserValidator</text>
</g>
<!-- \\Tdd\\UserValidator&#45;&gt;\\Tdd\\IValidator -->
<g id="edge5" class="edge"><title>\\Tdd\\UserValidator&#45;&gt;\\Tdd\\IValidator</title>
<path fill="none" stroke="black" stroke-dasharray="1,5" d="M314.228,-372.194C287.095,-376.529 250.96,-382.302 223.638,-386.667"/>
<polygon fill="none" stroke="black" points="222.958,-383.231 213.635,-388.265 224.062,-390.144 222.958,-383.231"/>
</g>
<!-- \\Tdd\\PasswordValidator -->
<g id="node10" class="node"><title>\\Tdd\\PasswordValidator</title>
<polygon fill="none" stroke="black" points="404.5,-330 303.5,-330 303.5,-294 404.5,-294 404.5,-330"/>
<text text-anchor="middle" x="354" y="-309.2" font-family="Times New Roman,serif" font-size="11.00">PasswordValidator</text>
</g>
<!-- \\Tdd\\PasswordValidator&#45;&gt;\\Tdd\\IValidator -->
<g id="edge6" class="edge"><title>\\Tdd\\PasswordValidator&#45;&gt;\\Tdd\\IValidator</title>
<path fill="none" stroke="black" stroke-dasharray="1,5" d="M315.073,-330.178C287.651,-343.321 250.713,-361.025 223.038,-374.289"/>
<polygon fill="none" stroke="black" points="221.171,-371.303 213.666,-378.781 224.197,-377.615 221.171,-371.303"/>
</g>
<!-- \\Tdd\\UserRepository -->
<g id="node11" class="node"><title>\\Tdd\\UserRepository</title>
<polygon fill="none" stroke="black" points="397,-276 311,-276 311,-240 397,-240 397,-276"/>
<text text-anchor="middle" x="354" y="-255.2" font-family="Times New Roman,serif" font-size="11.00">UserRepository</text>
</g>
<!-- \\Tdd\\PasswordGenerator -->
<g id="node12" class="node"><title>\\Tdd\\PasswordGenerator</title>
<polygon fill="none" stroke="black" points="406,-222 302,-222 302,-186 406,-186 406,-222"/>
<text text-anchor="middle" x="354" y="-201.2" font-family="Times New Roman,serif" font-size="11.00">PasswordGenerator</text>
</g>
<!-- \\Tdd\\Key -->
<g id="node13" class="node"><title>\\Tdd\\Key</title>
<polygon fill="none" stroke="black" points="381,-168 327,-168 327,-132 381,-132 381,-168"/>
<text text-anchor="middle" x="354" y="-147.2" font-family="Times New Roman,serif" font-size="11.00">Key</text>
</g>
<!-- \\Tdd\\PasswordHasher -->
<g id="node14" class="node"><title>\\Tdd\\PasswordHasher</title>
<polygon fill="none" stroke="black" points="400,-114 308,-114 308,-78 400,-78 400,-114"/>
<text text-anchor="middle" x="354" y="-93.2" font-family="Times New Roman,serif" font-size="11.00">PasswordHasher</text>
</g>
<!-- \\Tdd\\Factory -->
<g id="node15" class="node"><title>\\Tdd\\Factory</title>
<polygon fill="none" stroke="black" points="381,-60 327,-60 327,-24 381,-24 381,-60"/>
<text text-anchor="middle" x="354" y="-39.2" font-family="Times New Roman,serif" font-size="11.00">Factory</text>
</g>
</g>
</svg>
