<?xml version="1.0" encoding="UTF-8" standalone="no"?>
<!DOCTYPE svg PUBLIC "-//W3C//DTD SVG 1.1//EN"
 "http://www.w3.org/Graphics/SVG/1.1/DTD/svg11.dtd">
<!-- Generated by graphviz version 2.36.0 (20140111.2315)
 -->
<!-- Title: G Pages: 1 -->
<svg width="438pt" height="834pt"
 viewBox="0.00 0.00 438.00 834.00" xmlns="http://www.w3.org/2000/svg" xmlns:xlink="http://www.w3.org/1999/xlink">
<g id="graph0" class="graph" transform="scale(1 1) rotate(0) translate(4 830)">
<title>G</title>
<polygon fill="white" stroke="none" points="-4,4 -4,-830 434,-830 434,4 -4,4"/>
<g id="clust1" class="cluster"><title>cluster_Global</title>
<path fill="none" stroke="gray" d="M132,-8C132,-8 410,-8 410,-8 416,-8 422,-14 422,-20 422,-20 422,-806 422,-806 422,-812 416,-818 410,-818 410,-818 132,-818 132,-818 126,-818 120,-812 120,-806 120,-806 120,-20 120,-20 120,-14 126,-8 132,-8"/>
<text text-anchor="middle" x="271" y="-805.2" font-family="Times New Roman,serif" font-size="11.00" fill="gray">Global</text>
</g>
<g id="clust2" class="cluster"><title>cluster_\Tdd</title>
<path fill="none" stroke="gray" d="M140,-16C140,-16 402,-16 402,-16 408,-16 414,-22 414,-28 414,-28 414,-778 414,-778 414,-784 408,-790 402,-790 402,-790 140,-790 140,-790 134,-790 128,-784 128,-778 128,-778 128,-28 128,-28 128,-22 134,-16 140,-16"/>
<text text-anchor="middle" x="271" y="-777.2" font-family="Times New Roman,serif" font-size="11.00" fill="gray">Tdd</text>
</g>
<!-- \\Tdd\\Application -->
<g id="node1" class="node"><title>\\Tdd\\Application</title>
<polygon fill="none" stroke="black" points="387,-762 321,-762 321,-726 387,-726 387,-762"/>
<text text-anchor="middle" x="354" y="-741.2" font-family="Times New Roman,serif" font-size="11.00">Application</text>
</g>
<!-- \\Tdd\\Configuration -->
<g id="node2" class="node"><title>\\Tdd\\Configuration</title>
<polygon fill="none" stroke="black" points="392,-708 316,-708 316,-672 392,-672 392,-708"/>
<text text-anchor="middle" x="354" y="-687.2" font-family="Times New Roman,serif" font-size="11.00">Configuration</text>
</g>
<!-- \\Tdd\\EmailValidator -->
<g id="node3" class="node"><title>\\Tdd\\EmailValidator</title>
<polygon fill="none" stroke="black" points="395,-276 313,-276 313,-240 395,-240 395,-276"/>
<text text-anchor="middle" x="354" y="-255.2" font-family="Times New Roman,serif" font-size="11.00">EmailValidator</text>
</g>
<!-- \\Tdd\\IValidator -->
<g id="node16" class="node"><title>\\Tdd\\IValidator</title>
<polygon fill="none" stroke="black" points="213.5,-195 152.5,-195 152.5,-159 213.5,-159 213.5,-195"/>
<text text-anchor="middle" x="183" y="-174.2" font-family="Times New Roman,serif" font-size="11.00">IValidator</text>
</g>
<!-- \\Tdd\\EmailValidator&#45;&gt;\\Tdd\\IValidator -->
<g id="edge1" class="edge"><title>\\Tdd\\EmailValidator&#45;&gt;\\Tdd\\IValidator</title>
<path fill="none" stroke="black" stroke-dasharray="1,5" d="M315.073,-239.822C287.651,-226.679 250.713,-208.975 223.038,-195.711"/>
<polygon fill="none" stroke="black" points="224.197,-192.385 213.666,-191.219 221.171,-198.697 224.197,-192.385"/>
</g>
<!-- \\Tdd\\Factory -->
<g id="node4" class="node"><title>\\Tdd\\Factory</title>
<polygon fill="none" stroke="black" points="381,-600 327,-600 327,-564 381,-564 381,-600"/>
<text text-anchor="middle" x="354" y="-579.2" font-family="Times New Roman,serif" font-size="11.00">Factory</text>
</g>
<!-- \\Tdd\\Key -->
<g id="node5" class="node"><title>\\Tdd\\Key</title>
<polygon fill="none" stroke="black" points="381,-546 327,-546 327,-510 381,-510 381,-546"/>
<text text-anchor="middle" x="354" y="-525.2" font-family="Times New Roman,serif" font-size="11.00">Key</text>
</g>
<!-- \\Tdd\\PasswordGenerator -->
<g id="node6" class="node"><title>\\Tdd\\PasswordGenerator</title>
<polygon fill="none" stroke="black" points="406,-492 302,-492 302,-456 406,-456 406,-492"/>
<text text-anchor="middle" x="354" y="-471.2" font-family="Times New Roman,serif" font-size="11.00">PasswordGenerator</text>
</g>
<!-- \\Tdd\\PasswordHasher -->
<g id="node7" class="node"><title>\\Tdd\\PasswordHasher</title>
<polygon fill="none" stroke="black" points="400,-438 308,-438 308,-402 400,-402 400,-438"/>
<text text-anchor="middle" x="354" y="-417.2" font-family="Times New Roman,serif" font-size="11.00">PasswordHasher</text>
</g>
<!-- \\Tdd\\PasswordValidator -->
<g id="node8" class="node"><title>\\Tdd\\PasswordValidator</title>
<polygon fill="none" stroke="black" points="404.5,-114 303.5,-114 303.5,-78 404.5,-78 404.5,-114"/>
<text text-anchor="middle" x="354" y="-93.2" font-family="Times New Roman,serif" font-size="11.00">PasswordValidator</text>
</g>
<!-- \\Tdd\\PasswordValidator&#45;&gt;\\Tdd\\IValidator -->
<g id="edge2" class="edge"><title>\\Tdd\\PasswordValidator&#45;&gt;\\Tdd\\IValidator</title>
<path fill="none" stroke="black" stroke-dasharray="1,5" d="M315.073,-114.178C287.651,-127.321 250.713,-145.025 223.038,-158.289"/>
<polygon fill="none" stroke="black" points="221.171,-155.303 213.666,-162.781 224.197,-161.615 221.171,-155.303"/>
</g>
<!-- \\Tdd\\PersistentStorage -->
<g id="node9" class="node"><title>\\Tdd\\PersistentStorage</title>
<polygon fill="none" stroke="black" points="230,-654 136,-654 136,-618 230,-618 230,-654"/>
<text text-anchor="start" x="160" y="-639.2" font-family="Times New Roman,serif" font-size="11.00">«abstract»</text>
<text text-anchor="start" x="144" y="-627.2" font-family="Times New Roman,serif" font-size="11.00">PersistentStorage</text>
</g>
<!-- \\PDO -->
<g id="node17" class="node"><title>\\PDO</title>
<ellipse fill="none" stroke="black" cx="32" cy="-636" rx="31.6951" ry="18"/>
<text text-anchor="middle" x="32" y="-632.3" font-family="Times New Roman,serif" font-size="14.00" fill="gray">\PDO</text>
</g>
<!-- \\Tdd\\PersistentStorage&#45;&gt;\\PDO -->
<g id="edge3" class="edge"><title>\\Tdd\\PersistentStorage&#45;&gt;\\PDO</title>
<path fill="none" stroke="black" d="M135.672,-636C116.066,-636 93.4079,-636 74.3726,-636"/>
<polygon fill="none" stroke="black" points="74.2126,-632.5 64.2126,-636 74.2126,-639.5 74.2126,-632.5"/>
</g>
<!-- \\Tdd\\RegistrationModule -->
<g id="node10" class="node"><title>\\Tdd\\RegistrationModule</title>
<polygon fill="none" stroke="black" points="405,-330 303,-330 303,-294 405,-294 405,-330"/>
<text text-anchor="middle" x="354" y="-309.2" font-family="Times New Roman,serif" font-size="11.00">RegistrationModule</text>
</g>
<!-- \\Tdd\\SqliteStorage -->
<g id="node11" class="node"><title>\\Tdd\\SqliteStorage</title>
<polygon fill="none" stroke="black" points="391,-654 317,-654 317,-618 391,-618 391,-654"/>
<text text-anchor="middle" x="354" y="-633.2" font-family="Times New Roman,serif" font-size="11.00">SqliteStorage</text>
</g>
<!-- \\Tdd\\SqliteStorage&#45;&gt;\\Tdd\\PersistentStorage -->
<g id="edge4" class="edge"><title>\\Tdd\\SqliteStorage&#45;&gt;\\Tdd\\PersistentStorage</title>
<path fill="none" stroke="black" d="M316.745,-636C294.497,-636 265.538,-636 240.347,-636"/>
<polygon fill="none" stroke="black" points="240.177,-632.5 230.177,-636 240.177,-639.5 240.177,-632.5"/>
</g>
<!-- \\Tdd\\User -->
<g id="node12" class="node"><title>\\Tdd\\User</title>
<polygon fill="none" stroke="black" points="381,-222 327,-222 327,-186 381,-186 381,-222"/>
<text text-anchor="middle" x="354" y="-201.2" font-family="Times New Roman,serif" font-size="11.00">User</text>
</g>
<!-- \\Tdd\\UserRepository -->
<g id="node13" class="node"><title>\\Tdd\\UserRepository</title>
<polygon fill="none" stroke="black" points="397,-168 311,-168 311,-132 397,-132 397,-168"/>
<text text-anchor="middle" x="354" y="-147.2" font-family="Times New Roman,serif" font-size="11.00">UserRepository</text>
</g>
<!-- \\Tdd\\UserTypeValidator -->
<g id="node14" class="node"><title>\\Tdd\\UserTypeValidator</title>
<polygon fill="none" stroke="black" points="404.5,-384 303.5,-384 303.5,-348 404.5,-348 404.5,-384"/>
<text text-anchor="middle" x="354" y="-363.2" font-family="Times New Roman,serif" font-size="11.00">UserTypeValidator</text>
</g>
<!-- \\Tdd\\UserTypeValidator&#45;&gt;\\Tdd\\IValidator -->
<g id="edge5" class="edge"><title>\\Tdd\\UserTypeValidator&#45;&gt;\\Tdd\\IValidator</title>
<path fill="none" stroke="black" stroke-dasharray="1,5" d="M314.167,-347.895C309.868,-345.189 305.71,-342.215 302,-339 256.334,-299.423 218.32,-238.987 198.594,-204.208"/>
<polygon fill="none" stroke="black" points="201.451,-202.146 193.523,-195.117 195.338,-205.556 201.451,-202.146"/>
</g>
<!-- \\Tdd\\UserValidator -->
<g id="node15" class="node"><title>\\Tdd\\UserValidator</title>
<polygon fill="none" stroke="black" points="393.5,-60 314.5,-60 314.5,-24 393.5,-24 393.5,-60"/>
<text text-anchor="middle" x="354" y="-39.2" font-family="Times New Roman,serif" font-size="11.00">UserValidator</text>
</g>
<!-- \\Tdd\\UserValidator&#45;&gt;\\Tdd\\IValidator -->
<g id="edge6" class="edge"><title>\\Tdd\\UserValidator&#45;&gt;\\Tdd\\IValidator</title>
<path fill="none" stroke="black" stroke-dasharray="1,5" d="M316.109,-60.0805C311.247,-62.8795 306.422,-65.8829 302,-69 266.924,-93.7267 231.198,-127.954 208.387,-151.203"/>
<polygon fill="none" stroke="black" points="205.623,-149.025 201.166,-158.637 210.644,-153.902 205.623,-149.025"/>
</g>
</g>
</svg>
